<svg class="avatar" data-dark="6" data-light="2" data-reverse="true" data-rotation="0"><use xlink:href="#icon-avatar-2" xmlns:xlink="http://www.w3.org/1999/xlink">
  <symbol id="icon-avatar-2" viewBox="0 0 100 100"><title>avatar-2</title><path d="M74.7 90.7c.5-5.9.3-12-1.8-17.6-2.4-6.3-6.5-10.4-11.5-14.6C51.2 50 41.8 39.2 40.2 25.6c-.7-6.5-.2-31.9 12.3-24.1 4.8 3 8.2 8.6 11.4 13.1C68 20.4 71.7 26.5 74.5 33c6.7 15.5 7.2 31.4 4.2 47.8 7-18.4 3.9-40.2-4.7-57.5C69.8 14.6 64.6 5 56.1-.2c-8.2-5.1-20.6-2.3-28 2.9-4.6 3.2-7.9 8.2-10.4 13.2-1.5 3.1-3.4 8.8.5 10.9-2.7-1-5.5-1.8-8.4-2.4 2.5-16 17.4-30.6 33.5-31 9.5-.7 19.5 1 28 5.4 7 3.7 12.3 9.8 15.9 16.7 8 15.4 9.2 34.7 4.3 51.2-1.6 5.4-3.9 10.6-6.9 15.4-2.6 4.3-5 7.2-9.9 8.6"></path></symbol>
</use></svg>